<mxfile host="app.diagrams.net" modified="2023-09-10T06:55:06.962Z" agent="Mozilla/5.0 (Windows NT 10.0; Win64; x64) AppleWebKit/537.36 (KHTML, like Gecko) Chrome/116.0.0.0 Safari/537.36" version="21.1.5" etag="vGLxcpDOqWObGr7-cG6M" type="github">
  <diagram name="Page-1" id="0ENo7Rv_Ug-3njqtZ0bZ">
    <mxGraphModel>
      <root>
        <mxCell id="0" />
        <mxCell id="1" parent="0" />
      </root>
    </mxGraphModel>
  </diagram>
</mxfile>
